 <svg  version="1.0" xmlns="http://www.w3.org/2000/svg"  width="300.000000pt" height="300.000000pt" viewBox="0 0 300.000000 300.000000"  preserveAspectRatio="xMidYMid meet">  <g transform="translate(0.000000,300.000000) scale(0.050000,-0.050000)" fill="#7182b7" stroke="none"> <path d="M3590 5163 c-189 -91 -270 -216 -270 -417 0 -98 11 -100 150 -31 184 92 269 217 270 400 0 123 4 121 -150 48z m58 -118 c-24 -100 -64 -157 -150 -214 l-84 -55 13 64 c24 119 141 252 228 260 3 0 0 -25 -7 -55z"/> <path d="M3072 5038 c-125 -139 -144 -218 -102 -425 40 -197 39 -196 101 -122 188 224 222 351 151 564 -36 107 -39 106 -150 -17z m92 -113 c7 -108 -6 -173 -46 -239 -59 -94 -78 -82 -78 49 0 166 114 340 124 190z"/> <path d="M3909 4933 c-61 -28 -229 -202 -229 -238 0 -11 74 -16 182 -12 l182 7 100 109 c94 102 98 110 58 124 -88 33 -232 37 -293 10z m160 -71 c20 -32 -91 -102 -162 -102 -85 0 -85 29 -2 80 69 42 145 52 164 22z"/> <path d="M2525 4865 c-7 -19 -14 -126 -14 -236 -1 -240 29 -301 233 -471 l124 -103 16 57 c82 294 36 470 -170 658 -154 141 -168 148 -189 95z m302 -385 c47 -235 3 -306 -113 -182 -127 136 -172 299 -121 434 20 50 216 -162 234 -252z"/> <path d="M1735 4665 c-79 -177 -52 -330 89 -510 78 -99 89 -95 128 38 53 183 33 337 -59 463 -94 128 -104 128 -158 9z m123 -112 c78 -126 48 -368 -33 -265 -54 69 -73 179 -45 263 28 84 27 84 78 2z"/> <path d="M2080 4595 c1 -77 73 -207 143 -260 66 -49 256 -123 272 -106 12 12 -32 145 -79 237 -64 128 -337 232 -336 129z m250 -142 c34 -47 39 -93 12 -93 -33 0 -137 98 -147 138 -14 52 92 17 135 -45z"/> <path d="M3363 4595 c-178 -58 -349 -300 -433 -618 l-42 -158 -79 113 c-82 118 -219 214 -339 237 l-60 11 65 -25 c261 -101 370 -371 368 -913 -2 -368 -8 -379 -130 -213 -52 70 -212 239 -356 374 -299 281 -356 369 -359 551 -2 88 -6 104 -18 66 -28 -87 -21 -198 19 -312 l39 -111 -54 11 c-159 30 -238 35 -341 20 l-113 -16 163 -13 c279 -23 474 -138 670 -396 121 -161 121 -168 -6 -130 -217 64 -585 8 -737 -113 -39 -31 -23 -28 70 15 343 158 815 0 967 -322 115 -245 142 -688 97 -1568 l-16 -305 323 0 324 0 -33 45 c-280 382 -375 895 -222 1206 122 251 476 328 791 173 141 -69 105 -30 -41 46 -188 96 -450 121 -647 62 -114 -35 -115 -39 13 186 250 439 558 645 924 616 107 -9 126 -7 80 8 -76 25 -309 30 -438 10 -96 -15 -97 -14 -84 31 28 97 35 249 16 317 -19 66 -20 63 -22 -56 -3 -190 -65 -292 -282 -464 -123 -98 -284 -266 -403 -421 l-53 -69 9 370 c14 554 37 843 72 911 107 205 321 349 524 350 98 0 114 4 83 22 -94 55 -386 -24 -537 -145 -90 -71 -93 -59 -44 154 55 236 145 369 297 440 105 49 93 60 -25 23z"/> <path d="M3570 4550 c-130 -46 -331 -311 -267 -353 52 -34 305 22 386 86 55 43 123 142 166 242 l24 55 -114 -1 c-63 0 -151 -13 -195 -29z m143 -105 c-50 -95 -244 -201 -288 -156 -26 25 112 162 187 184 124 38 133 35 101 -28z"/> <path d="M4090 4521 c-113 -27 -250 -163 -250 -248 0 -67 275 16 336 101 102 144 77 187 -86 147z m30 -101 c-24 -44 -81 -80 -129 -80 -46 0 -3 76 55 100 76 31 98 25 74 -20z"/> <path d="M1265 4266 c43 -306 234 -495 564 -557 l77 -15 -12 74 c-45 277 -282 515 -562 562 l-78 13 11 -77z m254 -96 c118 -61 297 -301 255 -343 -48 -48 -299 122 -359 243 -83 169 -64 188 104 100z"/> <path d="M4543 4278 c-217 -42 -331 -145 -403 -363 -42 -126 -36 -141 47 -124 294 62 406 157 480 404 35 119 40 116 -124 83z m37 -91 c0 -47 -137 -215 -202 -248 -162 -82 -195 -14 -62 129 74 79 264 164 264 119z"/> <path d="M2092 4100 c-64 -137 -64 -148 0 -276 63 -126 79 -128 129 -19 59 130 44 246 -47 365 -30 38 -33 36 -82 -70z m87 -150 c0 -78 -28 -127 -46 -80 -17 44 -17 160 1 177 21 21 45 -31 45 -97z"/> <path d="M3890 4118 c-133 -148 -155 -253 -99 -468 39 -152 37 -150 119 -58 165 186 201 347 119 543 -35 84 -49 82 -139 -17z m95 -182 c1 -65 -14 -110 -57 -175 l-58 -87 -15 88 c-16 99 -8 139 50 234 50 83 78 61 80 -60z"/> <path d="M2350 4025 c-88 -222 -23 -471 173 -655 161 -152 178 -153 213 -18 63 240 -55 518 -280 660 -90 57 -88 57 -106 13z m171 -179 c112 -128 176 -319 144 -433 l-16 -56 -113 118 c-118 124 -162 259 -128 395 17 67 36 63 113 -24z"/> <path d="M3383 3986 c-67 -33 -202 -193 -203 -241 -1 -64 292 -18 376 60 46 42 144 182 144 205 0 26 -255 6 -317 -24z m157 -66 c0 -46 -82 -100 -153 -100 l-73 0 38 42 c59 66 188 105 188 58z"/> <path d="M984 3841 c-48 -22 -109 -58 -136 -79 l-49 -39 55 -38 c171 -119 323 -129 518 -32 153 76 155 97 15 161 -154 71 -291 80 -403 27z m292 -73 l74 -33 -80 -38 c-83 -39 -154 -39 -260 3 l-60 23 70 38 c87 46 160 48 256 7z"/> <path d="M4821 3838 c-122 -49 -325 -283 -291 -337 36 -60 376 -10 482 70 94 70 202 248 166 271 -37 23 -295 21 -357 -4z m188 -140 c-72 -77 -164 -118 -262 -118 l-75 0 69 72 c84 88 123 105 238 107 l88 1 -58 -62z"/> <path d="M4355 3739 c-255 -30 -373 -123 -498 -394 -73 -159 -76 -153 58 -138 283 30 441 125 535 324 56 120 85 230 58 226 -10 -1 -79 -9 -153 -18z m45 -105 c0 -138 -374 -407 -454 -327 -12 12 68 156 128 230 61 76 326 154 326 97z"/> <path d="M3470 3567 c-279 -142 -390 -333 -390 -670 l0 -59 115 61 c310 166 403 298 404 576 1 164 6 161 -129 92z m42 -170 c-21 -155 -75 -242 -202 -326 -133 -89 -141 -85 -112 50 36 166 74 225 195 305 141 92 135 94 119 -29z"/> <path d="M1534 3472 c-97 -36 -294 -166 -294 -193 0 -46 305 -168 421 -168 109 -1 320 84 448 180 116 87 -396 248 -575 181z m376 -121 l80 -35 -120 -58 c-158 -76 -428 -63 -481 23 -55 90 353 146 521 70z"/> <path d="M4600 3402 c-108 -34 -300 -152 -300 -183 0 -36 216 -104 332 -105 143 -2 421 145 366 194 -70 62 -316 121 -398 94z m209 -109 c68 -49 -118 -121 -237 -91 -109 27 -115 48 -27 86 84 37 217 39 264 5z"/> <path d="M1000 3120 c-183 -86 -193 -116 -62 -187 182 -99 385 -80 550 54 l59 47 -117 57 c-154 75 -307 86 -430 29z m297 -62 c80 -28 79 -46 -1 -80 -82 -33 -171 -33 -254 1 l-66 28 67 36 c78 41 164 46 254 15z"/> <path d="M4615 3046 c-89 -23 74 -198 227 -244 86 -26 258 1 258 40 0 129 -296 253 -485 204z m325 -126 l50 -39 -66 -1 c-60 0 -184 47 -184 71 0 27 156 3 200 -31z"/> <path d="M4210 2995 c48 -172 140 -318 230 -365 71 -37 300 -92 300 -72 0 64 -96 277 -149 330 -109 108 -405 192 -381 107z m239 -115 c83 -35 194 -184 161 -216 -22 -23 -194 82 -229 140 -73 119 -62 132 68 76z"/> <path d="M1961 2937 c-136 -22 -135 -22 -89 -107 132 -246 372 -359 678 -321 l111 14 -36 60 c-162 277 -391 398 -664 354z m350 -142 c53 -36 118 -94 145 -130 l49 -65 -123 0 c-180 0 -328 82 -403 222 -40 74 214 54 332 -27z"/> <path d="M1610 2844 c-201 -69 -305 -197 -340 -419 l-14 -86 134 49 c200 72 298 188 347 407 22 98 19 100 -127 49z m0 -158 c-45 -106 -152 -206 -221 -206 -63 0 54 190 146 239 103 54 110 51 75 -33z"/> <path d="M3704 2800 c-80 -36 -344 -267 -344 -301 0 -18 272 -59 395 -59 149 0 465 218 465 321 0 71 -382 100 -516 39z m371 -68 c53 -53 -225 -213 -366 -210 -217 4 -209 79 21 198 78 40 309 48 345 12z"/> <path d="M1076 2768 c-102 -31 -171 -103 -226 -234 l-31 -74 94 0 c170 0 326 121 393 305 16 45 -90 46 -230 3z m84 -86 c0 -31 -121 -122 -162 -122 -34 0 -35 5 -13 42 34 59 175 122 175 80z"/> <path d="M1729 2500 c-45 -22 -112 -72 -149 -110 l-67 -69 75 -31 c231 -97 440 -53 599 126 78 88 -307 159 -458 84z m288 -79 c45 -25 -99 -101 -193 -101 -163 0 -184 36 -59 99 84 42 180 43 252 2z"/> <path d="M4130 2513 c-99 -38 -177 -86 -225 -137 l-45 -49 80 -45 c194 -109 620 -22 620 126 0 86 -296 158 -430 105z m259 -100 c70 -51 -139 -110 -286 -81 -72 15 -64 41 24 79 81 35 215 36 262 2z"/> <path d="M2392 2388 c-210 -51 -320 -154 -412 -388 l-41 -105 166 9 c273 14 397 106 552 410 60 117 -9 136 -265 74z m168 -79 c0 -27 -123 -188 -179 -235 -53 -44 -207 -94 -292 -94 -84 0 121 252 251 308 68 30 220 44 220 21z"/> <path d="M3460 2200 c0 -12 26 -77 57 -145 129 -280 247 -369 512 -389 l150 -12 -20 68 c-36 125 -120 275 -190 336 -96 85 -509 200 -509 142z m272 -119 c147 -38 378 -278 321 -335 -19 -19 -211 37 -276 81 -80 54 -224 304 -165 287 21 -7 75 -21 120 -33z"/> <path d="M4205 2146 c-61 -12 -57 -26 30 -109 145 -137 231 -163 423 -124 77 15 77 28 -1 117 -106 121 -244 156 -452 116z m315 -109 c42 -26 60 -47 44 -52 -48 -16 -158 15 -194 55 -53 58 54 56 150 -3z"/> </g> </svg> 